<svg id="visual" viewBox="0 0 1960 400" width="1960" height="400" xmlns="http://www.w3.org/2000/svg" xmlns:xlink="http://www.w3.org/1999/xlink" version="1.1"><path d="M0 186L36.3 165.3C72.7 144.7 145.3 103.3 218 101.3C290.7 99.3 363.3 136.7 435.8 149.3C508.3 162 580.7 150 653.2 146.2C725.7 142.3 798.3 146.7 871 143.3C943.7 140 1016.3 129 1089 123.5C1161.7 118 1234.3 118 1306.8 118.3C1379.3 118.7 1451.7 119.3 1524.2 128.2C1596.7 137 1669.3 154 1742 157.5C1814.7 161 1887.3 151 1923.7 146L1960 141L1960 401L1923.7 401C1887.3 401 1814.7 401 1742 401C1669.3 401 1596.7 401 1524.2 401C1451.7 401 1379.3 401 1306.8 401C1234.3 401 1161.7 401 1089 401C1016.3 401 943.7 401 871 401C798.3 401 725.7 401 653.2 401C580.7 401 508.3 401 435.8 401C363.3 401 290.7 401 218 401C145.3 401 72.7 401 36.3 401L0 401Z" fill="#a7a7a7"></path><path d="M0 186L36.3 192.8C72.7 199.7 145.3 213.3 218 212C290.7 210.7 363.3 194.3 435.8 198.8C508.3 203.3 580.7 228.7 653.2 228.2C725.7 227.7 798.3 201.3 871 185.5C943.7 169.7 1016.3 164.3 1089 171.5C1161.7 178.7 1234.3 198.3 1306.8 205.8C1379.3 213.3 1451.7 208.7 1524.2 201.8C1596.7 195 1669.3 186 1742 191.3C1814.7 196.7 1887.3 216.3 1923.7 226.2L1960 236L1960 401L1923.7 401C1887.3 401 1814.7 401 1742 401C1669.3 401 1596.7 401 1524.2 401C1451.7 401 1379.3 401 1306.8 401C1234.3 401 1161.7 401 1089 401C1016.3 401 943.7 401 871 401C798.3 401 725.7 401 653.2 401C580.7 401 508.3 401 435.8 401C363.3 401 290.7 401 218 401C145.3 401 72.7 401 36.3 401L0 401Z" fill="#b8b8b8"></path><path d="M0 225L36.3 223.7C72.7 222.3 145.3 219.7 218 234.3C290.7 249 363.3 281 435.8 297.3C508.3 313.7 580.7 314.3 653.2 301C725.7 287.7 798.3 260.3 871 250.8C943.7 241.3 1016.3 249.7 1089 251.8C1161.7 254 1234.3 250 1306.8 258.2C1379.3 266.3 1451.7 286.7 1524.2 288.3C1596.7 290 1669.3 273 1742 272.8C1814.7 272.7 1887.3 289.3 1923.7 297.7L1960 306L1960 401L1923.7 401C1887.3 401 1814.7 401 1742 401C1669.3 401 1596.7 401 1524.2 401C1451.7 401 1379.3 401 1306.8 401C1234.3 401 1161.7 401 1089 401C1016.3 401 943.7 401 871 401C798.3 401 725.7 401 653.2 401C580.7 401 508.3 401 435.8 401C363.3 401 290.7 401 218 401C145.3 401 72.7 401 36.3 401L0 401Z" fill="#cacaca"></path><path d="M0 300L36.3 310.2C72.7 320.3 145.3 340.7 218 350.8C290.7 361 363.3 361 435.8 349.7C508.3 338.3 580.7 315.7 653.2 313C725.7 310.3 798.3 327.7 871 329.8C943.7 332 1016.3 319 1089 317.8C1161.7 316.7 1234.3 327.3 1306.8 334.8C1379.3 342.3 1451.7 346.7 1524.2 338.5C1596.7 330.3 1669.3 309.7 1742 304.2C1814.7 298.7 1887.3 308.3 1923.7 313.2L1960 318L1960 401L1923.7 401C1887.3 401 1814.7 401 1742 401C1669.3 401 1596.7 401 1524.2 401C1451.7 401 1379.3 401 1306.8 401C1234.3 401 1161.7 401 1089 401C1016.3 401 943.7 401 871 401C798.3 401 725.7 401 653.2 401C580.7 401 508.3 401 435.8 401C363.3 401 290.7 401 218 401C145.3 401 72.7 401 36.3 401L0 401Z" fill="#dbdbdb"></path></svg>