<svg id="visual" viewBox="0 0 1920 1080" width="1920" height="1080" xmlns="http://www.w3.org/2000/svg" xmlns:xlink="http://www.w3.org/1999/xlink" version="1.1"><path d="M0 303L20 315.7C40 328.3 80 353.7 120 377.2C160 400.7 200 422.3 240 399C280 375.7 320 307.3 360 269.5C400 231.7 440 224.3 480 244C520 263.7 560 310.3 600 328.3C640 346.3 680 335.7 720 334C760 332.3 800 339.7 840 350.5C880 361.3 920 375.7 960 377.3C1000 379 1040 368 1080 353.5C1120 339 1160 321 1200 324.7C1240 328.3 1280 353.7 1320 337.5C1360 321.3 1400 263.7 1440 236.7C1480 209.7 1520 213.3 1560 213.3C1600 213.3 1640 209.7 1680 207.8C1720 206 1760 206 1800 206C1840 206 1880 206 1900 206L1920 206L1920 0L1900 0C1880 0 1840 0 1800 0C1760 0 1720 0 1680 0C1640 0 1600 0 1560 0C1520 0 1480 0 1440 0C1400 0 1360 0 1320 0C1280 0 1240 0 1200 0C1160 0 1120 0 1080 0C1040 0 1000 0 960 0C920 0 880 0 840 0C800 0 760 0 720 0C680 0 640 0 600 0C560 0 520 0 480 0C440 0 400 0 360 0C320 0 280 0 240 0C200 0 160 0 120 0C80 0 40 0 20 0L0 0Z" fill="#dbdbdb"></path><path d="M0 455L20 483.7C40 512.3 80 569.7 120 598.3C160 627 200 627 240 600C280 573 320 519 360 477.7C400 436.3 440 407.7 480 433C520 458.3 560 537.7 600 564.7C640 591.7 680 566.3 720 548.3C760 530.3 800 519.7 840 532.3C880 545 920 581 960 595.3C1000 609.7 1040 602.3 1080 569.8C1120 537.3 1160 479.7 1200 477.8C1240 476 1280 530 1320 526.5C1360 523 1400 462 1440 438.7C1480 415.3 1520 429.7 1560 429.7C1600 429.7 1640 415.3 1680 400.8C1720 386.3 1760 371.7 1800 364.3C1840 357 1880 357 1900 357L1920 357L1920 204L1900 204C1880 204 1840 204 1800 204C1760 204 1720 204 1680 205.8C1640 207.7 1600 211.3 1560 211.3C1520 211.3 1480 207.7 1440 234.7C1400 261.7 1360 319.3 1320 335.5C1280 351.7 1240 326.3 1200 322.7C1160 319 1120 337 1080 351.5C1040 366 1000 377 960 375.3C920 373.7 880 359.3 840 348.5C800 337.7 760 330.3 720 332C680 333.7 640 344.3 600 326.3C560 308.3 520 261.7 480 242C440 222.3 400 229.7 360 267.5C320 305.3 280 373.7 240 397C200 420.3 160 398.7 120 375.2C80 351.7 40 326.3 20 313.7L0 301Z" fill="#d2d2d2"></path><path d="M0 638L20 665C40 692 80 746 120 769.5C160 793 200 786 240 760.8C280 735.7 320 692.3 360 645.5C400 598.7 440 548.3 480 562.7C520 577 560 656 600 688.3C640 720.7 680 706.3 720 701C760 695.7 800 699.3 840 710.2C880 721 920 739 960 749.8C1000 760.7 1040 764.3 1080 741C1120 717.7 1160 667.3 1200 654.7C1240 642 1280 667 1320 665.2C1360 663.3 1400 634.7 1440 609.5C1480 584.3 1520 562.7 1560 559C1600 555.3 1640 569.7 1680 567.8C1720 566 1760 548 1800 535.5C1840 523 1880 516 1900 512.5L1920 509L1920 355L1900 355C1880 355 1840 355 1800 362.3C1760 369.7 1720 384.3 1680 398.8C1640 413.3 1600 427.7 1560 427.7C1520 427.7 1480 413.3 1440 436.7C1400 460 1360 521 1320 524.5C1280 528 1240 474 1200 475.8C1160 477.7 1120 535.3 1080 567.8C1040 600.3 1000 607.7 960 593.3C920 579 880 543 840 530.3C800 517.7 760 528.3 720 546.3C680 564.3 640 589.7 600 562.7C560 535.7 520 456.3 480 431C440 405.7 400 434.3 360 475.7C320 517 280 571 240 598C200 625 160 625 120 596.3C80 567.7 40 510.3 20 481.7L0 453Z" fill="#cacaca"></path><path d="M0 789L20 805.3C40 821.7 80 854.3 120 865.2C160 876 200 865 240 843.3C280 821.7 320 789.3 360 758.8C400 728.3 440 699.7 480 714C520 728.3 560 785.7 600 809C640 832.3 680 821.7 720 823.5C760 825.3 800 839.7 840 857.7C880 875.7 920 897.3 960 895.5C1000 893.7 1040 868.3 1080 837.7C1120 807 1160 771 1200 760.3C1240 749.7 1280 764.3 1320 762.7C1360 761 1400 743 1440 719.5C1480 696 1520 667 1560 656.2C1600 645.3 1640 652.7 1680 663.5C1720 674.3 1760 688.7 1800 690.5C1840 692.3 1880 681.7 1900 676.3L1920 671L1920 507L1900 510.5C1880 514 1840 521 1800 533.5C1760 546 1720 564 1680 565.8C1640 567.7 1600 553.3 1560 557C1520 560.7 1480 582.3 1440 607.5C1400 632.7 1360 661.3 1320 663.2C1280 665 1240 640 1200 652.7C1160 665.3 1120 715.7 1080 739C1040 762.3 1000 758.7 960 747.8C920 737 880 719 840 708.2C800 697.3 760 693.7 720 699C680 704.3 640 718.7 600 686.3C560 654 520 575 480 560.7C440 546.3 400 596.7 360 643.5C320 690.3 280 733.7 240 758.8C200 784 160 791 120 767.5C80 744 40 690 20 663L0 636Z" fill="#b8b8b8"></path><path d="M0 1081L20 1081C40 1081 80 1081 120 1081C160 1081 200 1081 240 1081C280 1081 320 1081 360 1081C400 1081 440 1081 480 1081C520 1081 560 1081 600 1081C640 1081 680 1081 720 1081C760 1081 800 1081 840 1081C880 1081 920 1081 960 1081C1000 1081 1040 1081 1080 1081C1120 1081 1160 1081 1200 1081C1240 1081 1280 1081 1320 1081C1360 1081 1400 1081 1440 1081C1480 1081 1520 1081 1560 1081C1600 1081 1640 1081 1680 1081C1720 1081 1760 1081 1800 1081C1840 1081 1880 1081 1900 1081L1920 1081L1920 669L1900 674.3C1880 679.7 1840 690.3 1800 688.5C1760 686.7 1720 672.3 1680 661.5C1640 650.7 1600 643.3 1560 654.2C1520 665 1480 694 1440 717.5C1400 741 1360 759 1320 760.7C1280 762.3 1240 747.7 1200 758.3C1160 769 1120 805 1080 835.7C1040 866.3 1000 891.7 960 893.5C920 895.3 880 873.7 840 855.7C800 837.7 760 823.3 720 821.5C680 819.7 640 830.3 600 807C560 783.7 520 726.3 480 712C440 697.7 400 726.3 360 756.8C320 787.3 280 819.7 240 841.3C200 863 160 874 120 863.2C80 852.3 40 819.7 20 803.3L0 787Z" fill="#a7a7a7"></path></svg>